<svg width="899" height="139" viewBox="0 0 899 139" fill="none" xmlns="http://www.w3.org/2000/svg">
<path d="M257.78 5.82644C224.016 5.82644 196.27 33.5724 196.27 67.3363C196.27 101.1 224.016 128.839 257.78 128.839C291.544 128.839 319.283 101.093 319.283 67.3363C319.283 33.5798 291.514 5.82644 257.78 5.82644ZM257.78 122.821C246.803 122.822 236.071 119.568 226.944 113.469C217.816 107.371 210.703 98.7019 206.503 88.5596C202.303 78.4173 201.205 67.2572 203.349 56.4911C205.493 45.7251 210.782 35.8368 218.547 28.0771C226.312 20.3175 236.204 15.0351 246.971 12.8984C257.739 10.7616 268.898 11.8664 279.038 16.0731C289.177 20.2797 297.841 27.3991 303.934 36.5307C310.026 45.6623 313.273 56.3958 313.265 67.3733C313.251 82.0811 307.4 96.182 296.996 106.579C286.593 116.975 272.488 122.817 257.78 122.821V122.821Z" stroke="url(#paint0_linear)" stroke-width="2" stroke-miterlimit="10"/>
<path d="M738.052 116.337C737.919 116.337 737.794 116.337 737.668 116.337L714.75 78.6772C723.36 77.2322 731.114 72.6067 736.476 65.7166C741.838 58.8265 744.417 50.1741 743.703 41.4726C742.989 32.7711 739.034 24.655 732.62 18.7312C726.207 12.8074 717.803 9.5079 709.072 9.48591H678.554C678.116 8.04194 677.317 6.73352 676.233 5.68427C675.148 4.63501 673.814 3.8796 672.357 3.48955C670.899 3.09951 669.366 3.08769 667.903 3.45517C666.439 3.82265 665.094 4.55732 663.993 5.58969C662.893 6.62206 662.074 7.91801 661.614 9.35505C661.154 10.7921 661.068 12.3227 661.365 13.8021C661.661 15.2816 662.33 16.6611 663.308 17.8101C664.286 18.9591 665.541 19.8395 666.954 20.3684V116.892C664.978 117.634 663.331 119.056 662.31 120.903C661.288 122.75 660.958 124.9 661.38 126.969C661.801 129.037 662.946 130.887 664.609 132.187C666.272 133.487 668.344 134.151 670.453 134.06C672.562 133.97 674.569 133.131 676.115 131.693C677.66 130.256 678.643 128.314 678.885 126.218C679.128 124.121 678.616 122.006 677.44 120.254C676.264 118.501 674.501 117.225 672.469 116.655V79.1799H707.564L731.865 118.866C730.394 120.304 729.468 122.209 729.247 124.254C729.025 126.3 729.522 128.359 730.651 130.078C731.78 131.798 733.472 133.072 735.437 133.682C737.402 134.292 739.518 134.199 741.423 133.421C743.327 132.643 744.902 131.227 745.878 129.416C746.853 127.604 747.169 125.51 746.771 123.492C746.373 121.473 745.285 119.656 743.695 118.351C742.104 117.046 740.11 116.334 738.052 116.337ZM672.439 73.5168V20.6272C673.811 20.2409 675.069 19.5299 676.107 18.5544C677.146 17.579 677.934 16.3678 678.406 15.0233H709.042C716.799 15.0233 724.238 18.1047 729.723 23.5895C735.208 29.0743 738.289 36.5134 738.289 44.2701C738.289 52.0268 735.208 59.4658 729.723 64.9507C724.238 70.4355 716.799 73.5168 709.042 73.5168H672.439Z" stroke="url(#paint1_linear)" stroke-width="2" stroke-miterlimit="10"/>
<path d="M887.769 40.0487C890.219 40.0487 892.57 39.075 894.303 37.3419C896.036 35.6088 897.01 33.2584 897.01 30.8074C897.01 28.3565 896.036 26.0059 894.303 24.2728C892.57 22.5398 890.219 21.5661 887.769 21.5661C887.42 21.5697 887.072 21.5919 886.726 21.6327C879.4 12.0883 867.452 6.35867 853.347 5.81159C829.164 5.11665 811.598 17.4704 811.081 36.2487C810.386 56.4242 831.256 62.8635 844.993 67.2106L846.56 67.7355C848.297 68.253 849.865 68.7779 851.602 69.1254C868.125 73.9974 888.478 80.2592 887.783 100.435C887.737 104.44 886.733 108.376 884.857 111.915C882.981 115.454 880.286 118.494 876.997 120.78C870.217 125.652 860.998 128.085 850.042 127.737C831.478 127.198 820.84 118.289 816.115 108.094C817.999 107.036 819.452 105.35 820.22 103.331C820.988 101.312 821.024 99.0866 820.32 97.0439C819.616 95.0012 818.218 93.2703 816.368 92.1529C814.519 91.0355 812.337 90.6026 810.201 90.9294C808.065 91.2563 806.112 92.3223 804.682 93.9416C803.251 95.5609 802.435 97.6308 802.374 99.7905C802.313 101.95 803.012 104.063 804.349 105.76C805.687 107.457 807.577 108.631 809.691 109.077C811.712 114.052 814.798 118.523 818.733 122.178C826.562 129.305 837.341 133.267 849.865 133.652C850.549 133.799 851.25 133.858 851.949 133.829C863.261 133.829 873.522 130.872 881.344 125.127C885.204 122.279 888.368 118.593 890.598 114.345C892.827 110.098 894.064 105.4 894.215 100.605C895.088 75.7347 870.388 68.4304 854.212 63.5584L852.474 63.0409C835.773 57.9915 816.988 52.2545 817.513 36.4261C817.69 29.1218 820.995 22.6824 827.604 17.9879C833.866 13.6408 842.73 11.556 853.169 11.726C864.909 12.1252 874.801 16.8272 881.048 24.4864C879.819 25.7977 878.999 27.44 878.691 29.2111C878.382 30.9823 878.598 32.8049 879.313 34.4547C880.027 36.1046 881.208 37.5097 882.71 38.497C884.213 39.4843 885.971 40.0108 887.769 40.0117V40.0487Z" stroke="url(#paint2_linear)" stroke-width="2" stroke-miterlimit="10"/>
<path d="M531.965 116.914V70.3378H589.963V64.3199H531.965V20.3832C533.12 19.9458 534.171 19.2721 535.051 18.4051C535.93 17.5382 536.619 16.4971 537.073 15.3486H591.094V9.50068H537.317C536.873 8.04067 536.059 6.72 534.955 5.66637C533.851 4.61273 532.494 3.86174 531.014 3.48601C529.535 3.11027 527.984 3.12249 526.511 3.52147C525.038 3.92045 523.693 4.69277 522.605 5.76365C521.518 6.83454 520.725 8.16778 520.304 9.63461C519.882 11.1014 519.846 12.6522 520.199 14.1369C520.552 15.6217 521.283 16.9903 522.319 18.1104C523.356 19.2305 524.664 20.0643 526.117 20.5311V116.759C524.558 117.259 523.168 118.182 522.101 119.423C521.034 120.665 520.332 122.178 520.071 123.794C519.811 125.411 520.003 127.068 520.626 128.582C521.249 130.096 522.279 131.408 523.602 132.373C524.925 133.337 526.489 133.917 528.121 134.048C529.753 134.179 531.389 133.856 532.849 133.114C534.308 132.373 535.534 131.242 536.391 129.846C537.247 128.451 537.701 126.846 537.702 125.209V125.164H613.273V119.294H535.484C534.519 118.23 533.312 117.413 531.965 116.914V116.914Z" stroke="url(#paint3_linear)" stroke-width="2" stroke-miterlimit="10"/>
<path d="M449.725 6.92049C447.902 6.9221 446.124 7.48509 444.633 8.53284C443.141 9.5806 442.009 11.0623 441.389 12.7764C440.77 14.4906 440.693 16.3539 441.17 18.1131C441.647 19.8723 442.654 21.4419 444.054 22.6084L407.171 120.1C406.817 120.059 406.462 120.037 406.106 120.034C405.678 120.038 405.25 120.073 404.827 120.137L380.083 54.3393L368.106 22.6306C369.715 21.3161 370.812 19.4785 371.205 17.4382C371.598 15.3979 371.262 13.2844 370.256 11.4662C369.251 9.64804 367.639 8.24055 365.702 7.48914C363.764 6.73773 361.625 6.69006 359.656 7.35449C357.688 8.01892 356.015 9.3533 354.929 11.1249C353.843 12.8965 353.414 14.9929 353.716 17.0487C354.017 19.1045 355.031 20.9891 356.58 22.374C358.129 23.7589 360.115 24.5561 362.192 24.6267L399.356 123.161C398.258 124.46 397.557 126.047 397.335 127.734C397.114 129.421 397.383 131.135 398.109 132.674C398.834 134.212 399.987 135.509 401.43 136.411C402.872 137.312 404.543 137.78 406.244 137.759C407.945 137.737 409.604 137.227 411.023 136.289C412.442 135.351 413.562 134.025 414.249 132.469C414.935 130.913 415.16 129.192 414.896 127.511C414.632 125.831 413.891 124.262 412.76 122.991L449.998 24.6637C452.351 24.6324 454.595 23.6676 456.237 21.9817C457.879 20.2957 458.783 18.0267 458.752 15.6738C458.72 13.3209 457.756 11.0769 456.07 9.43531C454.384 7.79374 452.115 6.88912 449.762 6.92049H449.725Z" stroke="url(#paint4_linear)" stroke-width="2" stroke-miterlimit="10"/>
<path d="M158.3 116.588L145.569 16.7828C146.924 15.6834 147.925 14.2089 148.446 12.5436C148.967 10.8784 148.986 9.09629 148.499 7.4205C148.013 5.7447 147.043 4.24957 145.711 3.12213C144.38 1.9947 142.745 1.28507 141.012 1.08202C139.279 0.878958 137.524 1.19148 135.968 1.98051C134.411 2.76955 133.122 4.00002 132.262 5.51801C131.401 7.03599 131.007 8.77403 131.13 10.5147C131.252 12.2554 131.885 13.9214 132.949 15.3042L86.1585 95.378C85.1465 95.0598 84.092 94.8978 83.0313 94.8974C81.9042 94.8987 80.7852 95.086 79.7192 95.4519L32.4039 14.1878C33.2649 12.6417 33.6438 10.8734 33.4919 9.11028C33.34 7.34711 32.6643 5.66966 31.5516 4.29354C30.4389 2.91742 28.9401 1.90554 27.2477 1.38795C25.5554 0.870363 23.747 0.870672 22.0549 1.38895C20.3628 1.90722 18.8644 2.91977 17.7522 4.29634C16.6401 5.6729 15.965 7.35057 15.8138 9.1138C15.6627 10.877 16.0423 12.6452 16.9039 14.191C17.7656 15.7368 19.0698 16.9895 20.649 17.7882L8.08087 116.522C6.04598 116.942 4.22314 118.063 2.93022 119.69C1.63729 121.316 0.956314 123.345 1.00602 125.422C1.05573 127.5 1.83298 129.494 3.20222 131.056C4.57146 132.619 6.44583 133.652 8.49849 133.974C10.5511 134.297 12.6519 133.889 14.4343 132.821C16.2168 131.753 17.5679 130.093 18.252 128.131C18.9362 126.169 18.91 124.03 18.178 122.085C17.446 120.14 16.0547 118.514 14.2467 117.491L27.9311 20.0357L74.5071 99.481C73.4586 101.041 72.855 102.858 72.7609 104.736C72.6668 106.613 73.086 108.481 73.9733 110.139C74.8606 111.796 76.1825 113.18 77.7972 114.143C79.4119 115.106 81.2584 115.611 83.1383 115.604C85.0183 115.596 86.8608 115.077 88.4679 114.102C90.0751 113.126 91.3863 111.732 92.2607 110.068C93.1351 108.403 93.5397 106.532 93.4311 104.655C93.3224 102.779 92.7047 100.967 91.6441 99.4145L138.479 19.2003L152.149 117.35C150.303 118.306 148.852 119.879 148.047 121.795C147.243 123.712 147.137 125.849 147.748 127.836C148.359 129.822 149.648 131.531 151.39 132.665C153.132 133.798 155.217 134.284 157.28 134.037C159.344 133.791 161.255 132.827 162.682 131.315C164.108 129.804 164.958 127.839 165.083 125.765C165.209 123.69 164.602 121.638 163.369 119.965C162.136 118.292 160.355 117.105 158.336 116.611L158.3 116.588Z" stroke="url(#paint5_linear)" stroke-width="2" stroke-miterlimit="10"/>
<defs>
<linearGradient id="paint0_linear" x1="195.531" y1="67.3363" x2="320.022" y2="67.3363" gradientUnits="userSpaceOnUse">
<stop stop-color="#00C8FF"/>
<stop offset="0.51" stop-color="#AFCCE2"/>
<stop offset="1" stop-color="#DDA88E"/>
</linearGradient>
<linearGradient id="paint1_linear" x1="132368" y1="164208" x2="142486" y2="164208" gradientUnits="userSpaceOnUse">
<stop stop-color="#00C8FF"/>
<stop offset="0.51" stop-color="#AFCCE2"/>
<stop offset="1" stop-color="#DDA88E"/>
</linearGradient>
<linearGradient id="paint2_linear" x1="164245" y1="160850" x2="176548" y2="160850" gradientUnits="userSpaceOnUse">
<stop stop-color="#00C8FF"/>
<stop offset="0.51" stop-color="#AFCCE2"/>
<stop offset="1" stop-color="#DDA88E"/>
</linearGradient>
<linearGradient id="paint3_linear" x1="126028" y1="164172" x2="137993" y2="164172" gradientUnits="userSpaceOnUse">
<stop stop-color="#00C8FF"/>
<stop offset="0.51" stop-color="#AFCCE2"/>
<stop offset="1" stop-color="#DDA88E"/>
</linearGradient>
<linearGradient id="paint4_linear" x1="118100" y1="164839" x2="133239" y2="164839" gradientUnits="userSpaceOnUse">
<stop stop-color="#00C8FF"/>
<stop offset="0.51" stop-color="#AFCCE2"/>
<stop offset="1" stop-color="#DDA88E"/>
</linearGradient>
<linearGradient id="paint5_linear" x1="105515" y1="166775" x2="142272" y2="166775" gradientUnits="userSpaceOnUse">
<stop stop-color="#00C8FF"/>
<stop offset="0.51" stop-color="#AFCCE2"/>
<stop offset="1" stop-color="#DDA88E"/>
</linearGradient>
</defs>
</svg>
