<svg width="1500" height="109" viewBox="0 0 1500 109" fill="none" xmlns="http://www.w3.org/2000/svg">
<path d="M600.605 4.77063C574.227 4.77063 552.551 26.447 552.551 52.8249C552.551 79.2027 574.227 100.873 600.605 100.873C626.983 100.873 648.654 79.197 648.654 52.8249C648.654 26.4528 626.96 4.77063 600.605 4.77063ZM600.605 96.1719C592.029 96.1731 583.645 93.6306 576.515 88.8661C569.384 84.1016 563.826 77.3291 560.545 69.4055C557.264 61.4819 556.407 52.7631 558.082 44.3522C559.757 35.9412 563.888 28.2161 569.955 22.1539C576.021 16.0917 583.749 11.9649 592.161 10.2955C600.573 8.6262 609.291 9.48933 617.213 12.7757C625.134 16.0622 631.903 21.6242 636.663 28.7582C641.422 35.8922 643.959 44.2777 643.952 52.8538C643.942 64.3442 639.37 75.3604 631.243 83.4827C623.115 91.6049 612.096 96.1689 600.605 96.1719V96.1719Z" stroke="url(#paint0_linear)" stroke-width="2" stroke-miterlimit="10"/>
<path d="M975.816 91.1065C975.712 91.1065 975.613 91.1065 975.515 91.1065L957.61 61.6849C964.337 60.556 970.395 56.9423 974.584 51.5595C978.773 46.1766 980.788 39.417 980.23 32.619C979.672 25.821 976.582 19.4804 971.572 14.8524C966.561 10.2245 959.995 7.64675 953.175 7.62957H929.332C928.99 6.50147 928.366 5.47928 927.519 4.65955C926.672 3.83983 925.63 3.24967 924.491 2.94495C923.352 2.64023 922.155 2.631 921.011 2.91809C919.868 3.20517 918.817 3.77913 917.957 4.58567C917.098 5.3922 916.458 6.40466 916.099 7.52734C915.739 8.65002 915.672 9.84577 915.904 11.0016C916.135 12.1574 916.658 13.2352 917.422 14.1328C918.186 15.0304 919.166 15.7183 920.27 16.1315V91.5397C918.726 92.1194 917.44 93.2305 916.642 94.6735C915.844 96.1164 915.586 97.7966 915.916 99.4123C916.245 101.028 917.139 102.473 918.439 103.489C919.738 104.504 921.356 105.023 923.004 104.953C924.651 104.882 926.22 104.226 927.427 103.103C928.634 101.98 929.402 100.464 929.592 98.8257C929.781 97.1877 929.381 95.5357 928.462 94.1664C927.543 92.7971 926.167 91.8003 924.579 91.3549V62.0776H951.996L970.981 93.0819C969.832 94.2056 969.109 95.6938 968.936 97.2918C968.763 98.8898 969.151 100.498 970.033 101.842C970.916 103.185 972.237 104.18 973.772 104.657C975.308 105.133 976.961 105.061 978.448 104.453C979.936 103.845 981.167 102.739 981.929 101.324C982.691 99.9091 982.938 98.273 982.627 96.6961C982.316 95.1192 981.466 93.6994 980.224 92.6797C978.981 91.6601 977.423 91.1039 975.816 91.1065ZM924.556 57.6534V16.3337C925.627 16.0318 926.61 15.4764 927.421 14.7143C928.233 13.9523 928.848 13.006 929.217 11.9556H953.152C959.211 11.9556 965.023 14.3629 969.308 18.6479C973.593 22.9329 976 28.7446 976 34.8045C976 40.8644 973.593 46.6761 969.308 50.9611C965.023 55.2461 959.211 57.6534 953.152 57.6534H924.556Z" stroke="url(#paint1_linear)" stroke-width="2" stroke-miterlimit="10"/>
<path d="M1092.78 31.5066C1094.7 31.5066 1096.53 30.7459 1097.89 29.3919C1099.24 28.038 1100 26.2017 1100 24.2869C1100 22.3721 1099.24 20.5357 1097.89 19.1818C1096.53 17.8278 1094.7 17.0672 1092.78 17.0672C1092.51 17.0699 1092.24 17.0873 1091.97 17.1192C1086.24 9.66266 1076.91 5.18643 1065.89 4.75903C1047 4.21611 1033.27 13.8674 1032.87 28.5378C1032.33 44.2999 1048.63 49.3305 1059.36 52.7267L1060.59 53.1367C1061.94 53.541 1063.17 53.9511 1064.53 54.2226C1077.43 58.0288 1093.33 62.9209 1092.79 78.6829C1092.76 81.8121 1091.97 84.8872 1090.51 87.6521C1089.04 90.417 1086.93 92.7915 1084.37 94.5778C1079.07 98.384 1071.87 100.284 1063.31 100.013C1048.8 99.5911 1040.49 92.6313 1036.8 84.6666C1038.27 83.8399 1039.41 82.523 1040.01 80.9455C1040.61 79.3679 1040.64 77.6297 1040.09 76.0338C1039.54 74.438 1038.44 73.0857 1037 72.2127C1035.55 71.3398 1033.85 71.0015 1032.18 71.2569C1030.51 71.5123 1028.99 72.3451 1027.87 73.6101C1026.75 74.8752 1026.11 76.4923 1026.07 78.1796C1026.02 79.8668 1026.57 81.5173 1027.61 82.8431C1028.65 84.1689 1030.13 85.0861 1031.78 85.4348C1033.36 89.3211 1035.77 92.8145 1038.85 95.6694C1044.96 101.237 1053.38 104.333 1063.17 104.633C1063.7 104.748 1064.25 104.795 1064.8 104.772C1073.63 104.772 1081.65 102.462 1087.76 97.9739C1090.78 95.749 1093.25 92.8689 1094.99 89.5504C1096.73 86.232 1097.7 82.5616 1097.82 78.8157C1098.5 59.3861 1079.2 53.6797 1066.56 49.8734L1065.21 49.4692C1052.16 45.5243 1037.48 41.0423 1037.89 28.6764C1038.03 22.97 1040.61 17.9393 1045.78 14.2717C1050.67 10.8755 1057.59 9.24679 1065.75 9.37963C1074.92 9.69152 1082.65 13.3649 1087.53 19.3486C1086.57 20.3731 1085.93 21.6561 1085.69 23.0398C1085.45 24.4235 1085.62 25.8474 1086.17 27.1363C1086.73 28.4253 1087.65 29.523 1088.83 30.2943C1090 31.0656 1091.38 31.477 1092.78 31.4777V31.5066Z" stroke="url(#paint2_linear)" stroke-width="2" stroke-miterlimit="10"/>
<path d="M814.811 91.557V55.1698H860.121V50.4683H814.811V16.143C815.713 15.8013 816.534 15.275 817.221 14.5977C817.909 13.9204 818.447 13.1071 818.802 12.2098H861.005V7.64111H818.992C818.645 6.50049 818.009 5.46872 817.147 4.64557C816.284 3.82243 815.224 3.23572 814.068 2.94218C812.913 2.64863 811.701 2.65819 810.55 2.96989C809.399 3.28159 808.348 3.88496 807.499 4.72158C806.649 5.5582 806.03 6.59979 805.7 7.74574C805.371 8.89169 805.343 10.1032 805.619 11.2632C805.895 12.4231 806.465 13.4923 807.275 14.3674C808.085 15.2425 809.107 15.8939 810.242 16.2586V91.4357C809.024 91.8269 807.938 92.5474 807.105 93.5176C806.271 94.4877 805.722 95.6696 805.519 96.9324C805.316 98.1952 805.466 99.4897 805.952 100.672C806.439 101.855 807.244 102.88 808.277 103.634C809.311 104.388 810.532 104.841 811.807 104.943C813.082 105.046 814.361 104.793 815.501 104.214C816.642 103.634 817.599 102.751 818.268 101.661C818.938 100.57 819.292 99.3165 819.293 98.0374V98.0027H878.332V93.4168H817.56C816.806 92.5849 815.863 91.947 814.811 91.557V91.557Z" stroke="url(#paint3_linear)" stroke-width="2" stroke-miterlimit="10"/>
<path d="M750.561 5.62536C749.137 5.62661 747.748 6.06644 746.583 6.88499C745.418 7.70355 744.533 8.86112 744.049 10.2003C743.565 11.5394 743.505 12.9951 743.878 14.3695C744.25 15.7439 745.037 16.9701 746.131 17.8815L717.316 94.0463C717.04 94.0143 716.762 93.9969 716.484 93.9944C716.15 93.9979 715.816 94.0249 715.485 94.0753L696.154 42.671L686.797 17.8988C688.054 16.8718 688.911 15.4362 689.218 13.8423C689.525 12.2483 689.263 10.5971 688.477 9.17668C687.691 7.75624 686.432 6.65664 684.918 6.06961C683.405 5.48257 681.734 5.44533 680.196 5.96441C678.658 6.4835 677.35 7.52597 676.502 8.91003C675.654 10.2941 675.319 11.9319 675.554 13.538C675.79 15.144 676.582 16.6164 677.792 17.6983C679.002 18.7802 680.554 19.4031 682.176 19.4583L711.211 96.4375C710.353 97.4525 709.805 98.6926 709.632 100.01C709.459 101.328 709.669 102.667 710.236 103.869C710.803 105.071 711.704 106.085 712.831 106.789C713.958 107.493 715.263 107.859 716.592 107.842C717.921 107.825 719.217 107.427 720.326 106.694C721.434 105.961 722.309 104.925 722.845 103.709C723.382 102.494 723.557 101.149 723.351 99.8363C723.145 98.5234 722.566 97.2975 721.682 96.3047L750.775 19.4872C752.613 19.4627 754.366 18.709 755.649 17.3918C756.931 16.0747 757.638 14.302 757.613 12.4638C757.589 10.6256 756.835 8.87251 755.518 7.59004C754.201 6.30758 752.428 5.60085 750.59 5.62536H750.561Z" stroke="url(#paint4_linear)" stroke-width="2" stroke-miterlimit="10"/>
<path d="M522.887 91.3029L512.941 13.3302C514 12.4713 514.781 11.3194 515.189 10.0184C515.596 8.71741 515.61 7.32519 515.23 6.01598C514.85 4.70677 514.093 3.53871 513.052 2.65791C512.012 1.77711 510.735 1.22271 509.381 1.06407C508.027 0.905437 506.656 1.14959 505.44 1.76602C504.224 2.38245 503.217 3.34375 502.545 4.52967C501.873 5.71558 501.565 7.07342 501.66 8.43331C501.756 9.79319 502.25 11.0947 503.082 12.1751L466.527 74.7323C465.736 74.4837 464.912 74.3571 464.084 74.3568C463.203 74.3579 462.329 74.5042 461.496 74.79L424.531 11.3029C425.204 10.095 425.5 8.71358 425.381 7.33611C425.263 5.95865 424.735 4.64814 423.866 3.57306C422.996 2.49797 421.825 1.70745 420.503 1.30309C419.181 0.898721 417.768 0.898963 416.446 1.30386C415.124 1.70876 413.954 2.49981 413.085 3.57524C412.216 4.65068 411.689 5.96135 411.571 7.33886C411.452 8.71637 411.749 10.0978 412.422 11.3054C413.095 12.513 414.114 13.4917 415.348 14.1157L405.529 91.2509C403.939 91.5792 402.515 92.4551 401.505 93.7259C400.495 94.9966 399.963 96.5816 400.002 98.2044C400.041 99.8272 400.648 101.385 401.718 102.606C402.787 103.827 404.252 104.634 405.855 104.886C407.459 105.137 409.1 104.818 410.493 103.984C411.885 103.15 412.941 101.853 413.475 100.321C414.01 98.788 413.989 97.1162 413.417 95.597C412.846 94.0778 411.759 92.8075 410.346 92.0076L421.037 15.8716L457.424 77.9378C456.605 79.1569 456.134 80.576 456.06 82.0429C455.987 83.5098 456.314 84.9691 457.007 86.2639C457.7 87.5588 458.733 88.6403 459.995 89.3926C461.256 90.1448 462.699 90.5392 464.167 90.5335C465.636 90.5278 467.076 90.1222 468.331 89.3602C469.587 88.5982 470.611 87.5086 471.294 86.2084C471.977 84.9082 472.293 83.4465 472.209 81.9802C472.124 80.514 471.641 79.0985 470.813 77.8858L507.402 15.2189L518.081 91.8978C516.639 92.6444 515.506 93.8734 514.877 95.3706C514.249 96.8677 514.166 98.5379 514.644 100.09C515.121 101.642 516.128 102.977 517.489 103.862C518.85 104.748 520.478 105.127 522.09 104.934C523.703 104.742 525.196 103.989 526.31 102.808C527.424 101.627 528.088 100.092 528.186 98.4718C528.285 96.8512 527.811 95.2475 526.848 93.9405C525.884 92.6335 524.493 91.7061 522.916 91.3202L522.887 91.3029Z" stroke="url(#paint5_linear)" stroke-width="2" stroke-miterlimit="10"/>
<line y1="98" x2="400" y2="98" stroke="#00C8FF" stroke-width="2"/>
<line x1="1099.99" y1="24.5" x2="1499.99" y2="24.5" stroke="#00C8FF" stroke-width="2"/>
<defs>
<linearGradient id="paint0_linear" x1="551.973" y1="52.8249" x2="649.231" y2="52.8249" gradientUnits="userSpaceOnUse">
<stop stop-color="#00C8FF"/>
<stop offset="0.51" stop-color="#AFCCE2"/>
<stop offset="1" stop-color="#DDA88E"/>
</linearGradient>
<linearGradient id="paint1_linear" x1="103811" y1="128287" x2="111716" y2="128287" gradientUnits="userSpaceOnUse">
<stop stop-color="#00C8FF"/>
<stop offset="0.51" stop-color="#AFCCE2"/>
<stop offset="1" stop-color="#DDA88E"/>
</linearGradient>
<linearGradient id="paint2_linear" x1="128715" y1="125663" x2="138326" y2="125663" gradientUnits="userSpaceOnUse">
<stop stop-color="#00C8FF"/>
<stop offset="0.51" stop-color="#AFCCE2"/>
<stop offset="1" stop-color="#DDA88E"/>
</linearGradient>
<linearGradient id="paint3_linear" x1="98858" y1="128259" x2="108205" y2="128259" gradientUnits="userSpaceOnUse">
<stop stop-color="#00C8FF"/>
<stop offset="0.51" stop-color="#AFCCE2"/>
<stop offset="1" stop-color="#DDA88E"/>
</linearGradient>
<linearGradient id="paint4_linear" x1="92664.5" y1="128779" x2="104492" y2="128779" gradientUnits="userSpaceOnUse">
<stop stop-color="#00C8FF"/>
<stop offset="0.51" stop-color="#AFCCE2"/>
<stop offset="1" stop-color="#DDA88E"/>
</linearGradient>
<linearGradient id="paint5_linear" x1="82832.1" y1="130292" x2="111549" y2="130292" gradientUnits="userSpaceOnUse">
<stop stop-color="#00C8FF"/>
<stop offset="0.51" stop-color="#AFCCE2"/>
<stop offset="1" stop-color="#DDA88E"/>
</linearGradient>
</defs>
</svg>
